<svg width="246" height="14" viewBox="0 0 246 14" fill="none" xmlns="http://www.w3.org/2000/svg">
<path d="M2.39631 5.49857C2.39631 4.96495 2.52723 4.47773 2.78906 4.03692C3.0509 3.59611 3.40057 3.24644 3.83807 2.98792C4.27888 2.72608 4.7661 2.59516 5.29972 2.59516C5.76373 2.59516 6.19295 2.69625 6.58736 2.89843C6.98177 3.09729 7.30824 3.37073 7.56676 3.71874C7.82528 4.06675 7.98272 4.45785 8.03906 4.89203H6.74645C6.68679 4.5838 6.51776 4.3319 6.23935 4.13635C5.96425 3.93749 5.65104 3.83806 5.29972 3.83806C4.99479 3.83806 4.71638 3.91263 4.46449 4.06178C4.21259 4.21093 4.01207 4.41145 3.86293 4.66334C3.71378 4.91192 3.6392 5.19033 3.6392 5.49857C3.6392 5.80349 3.71378 6.0819 3.86293 6.3338C4.01207 6.58569 4.21259 6.78621 4.46449 6.93536C4.71638 7.08451 4.99479 7.15908 5.29972 7.15908C5.65104 7.15908 5.95099 7.06131 6.19957 6.86576C6.44815 6.66689 6.60393 6.41334 6.6669 6.1051H7.95952C7.90317 6.53929 7.75237 6.93039 7.5071 7.2784C7.26184 7.62641 6.94863 7.9015 6.56747 8.10368C6.18632 8.30255 5.76373 8.40198 5.29972 8.40198C4.7661 8.40198 4.27888 8.27272 3.83807 8.01419C3.40057 7.75236 3.0509 7.40103 2.78906 6.96022C2.52723 6.5194 2.39631 6.03219 2.39631 5.49857ZM5.25497 10.7486C4.53243 10.7486 3.85298 10.6127 3.21662 10.3409C2.58357 10.0691 2.02509 9.69293 1.54119 9.21235C1.06061 8.72845 0.682765 8.16997 0.40767 7.53692C0.13589 6.90387 0.00165721 6.22442 0.00497164 5.49857C0.00828599 4.77272 0.145833 4.09327 0.417614 3.46022C0.692708 2.82717 1.07055 2.27035 1.55114 1.78976C2.03172 1.30586 2.58854 0.928019 3.22159 0.656239C3.85464 0.384458 4.53243 0.248568 5.25497 0.248568C5.98082 0.248568 6.66027 0.384458 7.29332 0.656239C7.92969 0.928019 8.48651 1.30586 8.96378 1.78976C9.44437 2.27035 9.82055 2.82717 10.0923 3.46022C10.3641 4.09327 10.5017 4.77272 10.505 5.49857C10.5083 6.22442 10.3741 6.90387 10.1023 7.53692C9.83049 8.16997 9.45431 8.72845 8.97372 9.21235C8.49313 9.69293 7.93466 10.0691 7.2983 10.3409C6.66193 10.6127 5.98082 10.7486 5.25497 10.7486ZM5.25497 9.42613C5.79853 9.42613 6.30895 9.32504 6.78622 9.12286C7.26349 8.92068 7.68111 8.64061 8.03906 8.28266C8.40033 7.92139 8.68206 7.50378 8.88423 7.02982C9.08641 6.55255 9.18584 6.04379 9.18253 5.50354C9.18253 4.95998 9.07978 4.44956 8.87429 3.97229C8.67211 3.49502 8.39039 3.0774 8.02912 2.71945C7.67116 2.35818 7.25521 2.07646 6.78125 1.87428C6.30729 1.6721 5.79853 1.57101 5.25497 1.57101C4.71473 1.57101 4.20762 1.6721 3.73366 1.87428C3.25971 2.07646 2.84209 2.35818 2.48082 2.71945C2.12287 3.08072 1.84115 3.49999 1.63565 3.97726C1.43016 4.45122 1.32741 4.95998 1.32741 5.50354C1.3241 6.04047 1.42353 6.54757 1.62571 7.02485C1.8312 7.49881 2.11293 7.91642 2.47088 8.27769C2.83215 8.63564 3.24976 8.91737 3.72372 9.12286C4.20099 9.32504 4.71141 9.42613 5.25497 9.42613ZM16.3466 10.5895V9.47584L19.7919 5.90624C20.1598 5.51845 20.4631 5.17873 20.7017 4.88706C20.9437 4.59208 21.1243 4.31202 21.2436 4.04686C21.3629 3.78171 21.4226 3.49999 21.4226 3.20169C21.4226 2.86362 21.343 2.57196 21.1839 2.32669C21.0249 2.07811 20.8078 1.88754 20.5327 1.75496C20.2576 1.61907 19.9477 1.55112 19.603 1.55112C19.2384 1.55112 18.9202 1.6257 18.6484 1.77485C18.3767 1.92399 18.1679 2.13446 18.022 2.40624C17.8762 2.67802 17.8033 2.9962 17.8033 3.36078H16.3366C16.3366 2.74099 16.4792 2.19909 16.7642 1.73507C17.0492 1.27106 17.4403 0.911447 17.9375 0.656239C18.4347 0.397716 18.9998 0.268454 19.6328 0.268454C20.2725 0.268454 20.8359 0.396059 21.3232 0.651267C21.8137 0.903161 22.1965 1.24786 22.4716 1.68536C22.7467 2.11954 22.8842 2.61007 22.8842 3.15695C22.8842 3.53479 22.813 3.90434 22.6705 4.26561C22.5313 4.62688 22.2876 5.02958 21.9396 5.47371C21.5916 5.91452 21.1077 6.4498 20.4879 7.07953L18.4645 9.19743V9.27201H23.0483V10.5895H16.3466ZM28.4773 10.7585C27.6918 10.7552 27.0206 10.548 26.4638 10.1371C25.907 9.72608 25.4811 9.12783 25.1861 8.34232C24.8911 7.55681 24.7436 6.61055 24.7436 5.50354C24.7436 4.39985 24.8911 3.4569 25.1861 2.6747C25.4844 1.89251 25.9119 1.29592 26.4688 0.884932C27.0289 0.473947 27.6984 0.268454 28.4773 0.268454C29.2562 0.268454 29.924 0.475604 30.4808 0.889903C31.0376 1.30089 31.4635 1.89748 31.7585 2.67968C32.0568 3.45856 32.206 4.39985 32.206 5.50354C32.206 6.61386 32.0585 7.56178 31.7635 8.34729C31.4685 9.12949 31.0426 9.72774 30.4858 10.142C29.929 10.553 29.2595 10.7585 28.4773 10.7585ZM28.4773 9.4311C29.1667 9.4311 29.7053 9.09469 30.093 8.42186C30.4841 7.74904 30.6797 6.77627 30.6797 5.50354C30.6797 4.65837 30.5902 3.94412 30.4112 3.36078C30.2356 2.77414 29.982 2.33001 29.6506 2.0284C29.3224 1.72347 28.9313 1.57101 28.4773 1.57101C27.7912 1.57101 27.2526 1.90908 26.8615 2.58522C26.4704 3.26135 26.2732 4.23413 26.2699 5.50354C26.2699 6.35202 26.3577 7.06959 26.5334 7.65624C26.7124 8.23957 26.9659 8.68204 27.294 8.98365C27.6222 9.28195 28.0166 9.4311 28.4773 9.4311ZM33.9696 10.5895V9.47584L37.415 5.90624C37.7828 5.51845 38.0861 5.17873 38.3248 4.88706C38.5667 4.59208 38.7473 4.31202 38.8667 4.04686C38.986 3.78171 39.0456 3.49999 39.0456 3.20169C39.0456 2.86362 38.9661 2.57196 38.807 2.32669C38.6479 2.07811 38.4308 1.88754 38.1557 1.75496C37.8806 1.61907 37.5707 1.55112 37.226 1.55112C36.8614 1.55112 36.5433 1.6257 36.2715 1.77485C35.9997 1.92399 35.7909 2.13446 35.6451 2.40624C35.4992 2.67802 35.4263 2.9962 35.4263 3.36078H33.9597C33.9597 2.74099 34.1022 2.19909 34.3873 1.73507C34.6723 1.27106 35.0634 0.911447 35.5605 0.656239C36.0577 0.397716 36.6228 0.268454 37.2559 0.268454C37.8955 0.268454 38.459 0.396059 38.9462 0.651267C39.4367 0.903161 39.8195 1.24786 40.0946 1.68536C40.3697 2.11954 40.5073 2.61007 40.5073 3.15695C40.5073 3.53479 40.436 3.90434 40.2935 4.26561C40.1543 4.62688 39.9107 5.02958 39.5627 5.47371C39.2147 5.91452 38.7308 6.4498 38.111 7.07953L36.0875 9.19743V9.27201H40.6713V10.5895H33.9696ZM46.1003 10.7287C45.4176 10.7287 44.8077 10.611 44.2708 10.3757C43.7372 10.1404 43.3146 9.81391 43.003 9.3963C42.6948 8.97537 42.5291 8.48815 42.5059 7.93465H44.0669C44.0868 8.23626 44.1879 8.49809 44.3702 8.72016C44.5558 8.93891 44.7978 9.10794 45.0961 9.22726C45.3944 9.34658 45.7258 9.40624 46.0904 9.40624C46.4914 9.40624 46.8461 9.33664 47.1543 9.19743C47.4658 9.05823 47.7095 8.86434 47.8851 8.61576C48.0608 8.36386 48.1486 8.07385 48.1486 7.74573C48.1486 7.40434 48.0608 7.10439 47.8851 6.84587C47.7128 6.58403 47.4592 6.37854 47.1245 6.22939C46.793 6.08024 46.392 6.00567 45.9213 6.00567H45.0613V4.75283H45.9213C46.2992 4.75283 46.6306 4.68488 46.9157 4.54899C47.204 4.4131 47.4294 4.22418 47.5918 3.98223C47.7542 3.73697 47.8354 3.45027 47.8354 3.12215C47.8354 2.80728 47.7641 2.53384 47.6216 2.30184C47.4824 2.06651 47.2836 1.88256 47.025 1.74999C46.7698 1.61741 46.4682 1.55112 46.1202 1.55112C45.7888 1.55112 45.4789 1.61244 45.1905 1.73507C44.9055 1.85439 44.6735 2.02674 44.4945 2.25212C44.3155 2.47418 44.2194 2.74099 44.2061 3.05255H42.7196C42.7362 2.50236 42.8986 2.01845 43.2069 1.60084C43.5184 1.18323 43.9294 0.856759 44.4398 0.621437C44.9502 0.386115 45.517 0.268454 46.1401 0.268454C46.793 0.268454 47.3565 0.396059 47.8304 0.651267C48.3077 0.903161 48.6756 1.23957 48.9341 1.6605C49.196 2.08143 49.3252 2.54213 49.3219 3.0426C49.3252 3.61268 49.1661 4.09658 48.8446 4.49431C48.5265 4.89203 48.1022 5.15884 47.5719 5.29473V5.37428C48.248 5.47702 48.7717 5.74549 49.1429 6.17968C49.5175 6.61386 49.7031 7.15245 49.6998 7.79544C49.7031 8.35558 49.5473 8.85771 49.2324 9.30184C48.9209 9.74596 48.495 10.0956 47.9547 10.3508C47.4145 10.6027 46.7963 10.7287 46.1003 10.7287ZM58.7195 10.5895H55.4233V0.407659H58.8239C59.8215 0.407659 60.6783 0.611494 61.3942 1.01917C62.1101 1.42352 62.6586 2.0052 63.0398 2.76419C63.4242 3.51988 63.6165 4.42636 63.6165 5.48365C63.6165 6.54426 63.4226 7.45572 63.0348 8.21803C62.6503 8.98034 62.0935 9.56699 61.3643 9.97797C60.6352 10.3856 59.7536 10.5895 58.7195 10.5895ZM56.9595 9.24715H58.6349C59.4105 9.24715 60.0552 9.10131 60.5689 8.80965C61.0826 8.51467 61.4671 8.08877 61.7223 7.53195C61.9775 6.97182 62.1051 6.28905 62.1051 5.48365C62.1051 4.68488 61.9775 4.00709 61.7223 3.45027C61.4704 2.89345 61.0942 2.47087 60.5938 2.18252C60.0933 1.89416 59.4718 1.74999 58.7294 1.74999H56.9595V9.24715ZM65.4075 10.5895V2.95311H66.894V10.5895H65.4075ZM66.1582 1.77485C65.8997 1.77485 65.6776 1.68867 65.492 1.51632C65.3097 1.34066 65.2186 1.13185 65.2186 0.889903C65.2186 0.644638 65.3097 0.435831 65.492 0.263483C65.6776 0.08782 65.8997 -1.13249e-05 66.1582 -1.13249e-05C66.4167 -1.13249e-05 66.6371 0.08782 66.8194 0.263483C67.005 0.435831 67.0978 0.644638 67.0978 0.889903C67.0978 1.13185 67.005 1.34066 66.8194 1.51632C66.6371 1.68867 66.4167 1.77485 66.1582 1.77485ZM75.4265 2.95311L72.6573 10.5895H71.0664L68.2923 2.95311H69.8881L71.8221 8.82953H71.9016L73.8306 2.95311H75.4265ZM79.8549 10.7436C79.1026 10.7436 78.4546 10.5828 77.911 10.2614C77.3708 9.93654 76.9532 9.48081 76.6582 8.89417C76.3665 8.3042 76.2207 7.61315 76.2207 6.82101C76.2207 6.03881 76.3665 5.34942 76.6582 4.75283C76.9532 4.15624 77.3642 3.69057 77.8912 3.35581C78.4215 3.02106 79.0413 2.85368 79.7505 2.85368C80.1814 2.85368 80.599 2.92494 81.0034 3.06746C81.4077 3.20998 81.7707 3.4337 82.0922 3.73863C82.4136 4.04355 82.6672 4.43962 82.8528 4.92684C83.0384 5.41074 83.1312 5.99904 83.1312 6.69175V7.21874H77.0609V6.1051H81.6745C81.6745 5.714 81.595 5.36765 81.4359 5.06604C81.2768 4.76112 81.0531 4.52082 80.7647 4.34516C80.4797 4.1695 80.1449 4.08167 79.7605 4.08167C79.3429 4.08167 78.9783 4.18441 78.6667 4.3899C78.3585 4.59208 78.1199 4.85723 77.9508 5.18536C77.7851 5.51017 77.7022 5.86315 77.7022 6.24431V7.11434C77.7022 7.62475 77.7917 8.05894 77.9707 8.41689C78.153 8.77485 78.4065 9.04828 78.7314 9.2372C79.0562 9.42281 79.4357 9.51561 79.8699 9.51561C80.1516 9.51561 80.4084 9.47584 80.6404 9.3963C80.8725 9.31344 81.073 9.1908 81.242 9.0284C81.411 8.86599 81.5403 8.66547 81.6298 8.42684L83.0368 8.68039C82.9241 9.09469 82.7219 9.45761 82.4302 9.76917C82.1419 10.0774 81.7789 10.3177 81.3414 10.49C80.9073 10.6591 80.4118 10.7436 79.8549 10.7436ZM90.4531 3.08237C90.4001 2.61173 90.1813 2.24715 89.7969 1.98862C89.4124 1.72679 88.9285 1.59587 88.3452 1.59587C87.9276 1.59587 87.5663 1.66216 87.2614 1.79473C86.9564 1.92399 86.7195 2.10297 86.5504 2.33167C86.3847 2.55704 86.3018 2.81391 86.3018 3.10226C86.3018 3.34421 86.3582 3.55302 86.4709 3.72868C86.5869 3.90434 86.7377 4.05184 86.9233 4.17115C87.1122 4.28716 87.3144 4.38493 87.5298 4.46448C87.7453 4.54071 87.9524 4.60368 88.1513 4.6534L89.1456 4.91192C89.4704 4.99147 89.8035 5.09918 90.1449 5.23507C90.4863 5.37096 90.8028 5.54994 91.0945 5.77201C91.3861 5.99407 91.6214 6.26917 91.8004 6.59729C91.9827 6.92542 92.0739 7.31817 92.0739 7.77556C92.0739 8.35226 91.9247 8.86434 91.6264 9.31178C91.3314 9.75922 90.9022 10.1122 90.3388 10.3707C89.7786 10.6293 89.1009 10.7585 88.3054 10.7585C87.5431 10.7585 86.8835 10.6375 86.3267 10.3956C85.7699 10.1536 85.334 9.81059 85.0192 9.36647C84.7043 8.91902 84.5303 8.38872 84.4972 7.77556H86.0384C86.0682 8.14345 86.1875 8.45004 86.3963 8.6953C86.6084 8.93725 86.8786 9.11789 87.2067 9.2372C87.5381 9.35321 87.901 9.41121 88.2955 9.41121C88.7296 9.41121 89.1158 9.34327 89.4538 9.20738C89.7952 9.06817 90.0637 8.87594 90.2592 8.63067C90.4548 8.38209 90.5526 8.09208 90.5526 7.76064C90.5526 7.45903 90.4664 7.21211 90.294 7.01988C90.125 6.82764 89.8946 6.66855 89.603 6.5426C89.3146 6.41666 88.9882 6.30562 88.6236 6.20951L87.4205 5.88138C86.6051 5.65932 85.9588 5.33285 85.4815 4.90198C85.0076 4.47111 84.7706 3.90103 84.7706 3.19175C84.7706 2.6051 84.9297 2.09303 85.2479 1.65553C85.5661 1.21803 85.9969 0.878303 86.5405 0.636353C87.084 0.391087 87.6972 0.268454 88.38 0.268454C89.0694 0.268454 89.6776 0.38943 90.2045 0.631381C90.7348 0.873332 91.1525 1.20643 91.4574 1.63067C91.7623 2.0516 91.9214 2.5355 91.9347 3.08237H90.4531ZM97.0815 10.7436C96.3291 10.7436 95.6812 10.5828 95.1376 10.2614C94.5974 9.93654 94.1797 9.48081 93.8848 8.89417C93.5931 8.3042 93.4473 7.61315 93.4473 6.82101C93.4473 6.03881 93.5931 5.34942 93.8848 4.75283C94.1797 4.15624 94.5907 3.69057 95.1177 3.35581C95.648 3.02106 96.2678 2.85368 96.9771 2.85368C97.408 2.85368 97.8256 2.92494 98.2299 3.06746C98.6343 3.20998 98.9972 3.4337 99.3187 3.73863C99.6402 4.04355 99.8938 4.43962 100.079 4.92684C100.265 5.41074 100.358 5.99904 100.358 6.69175V7.21874H94.2875V6.1051H98.9011C98.9011 5.714 98.8216 5.36765 98.6625 5.06604C98.5034 4.76112 98.2797 4.52082 97.9913 4.34516C97.7063 4.1695 97.3715 4.08167 96.987 4.08167C96.5694 4.08167 96.2048 4.18441 95.8933 4.3899C95.585 4.59208 95.3464 4.85723 95.1774 5.18536C95.0117 5.51017 94.9288 5.86315 94.9288 6.24431V7.11434C94.9288 7.62475 95.0183 8.05894 95.1973 8.41689C95.3796 8.77485 95.6331 9.04828 95.9579 9.2372C96.2827 9.42281 96.6622 9.51561 97.0964 9.51561C97.3781 9.51561 97.635 9.47584 97.867 9.3963C98.099 9.31344 98.2995 9.1908 98.4686 9.0284C98.6376 8.86599 98.7669 8.66547 98.8564 8.42684L100.263 8.68039C100.151 9.09469 99.9484 9.45761 99.6568 9.76917C99.3684 10.0774 99.0055 10.3177 98.568 10.49C98.1338 10.6591 97.6383 10.7436 97.0815 10.7436ZM104.229 10.7585C103.746 10.7585 103.308 10.669 102.917 10.49C102.526 10.3078 102.216 10.0443 101.987 9.69956C101.762 9.35487 101.649 8.93228 101.649 8.43181C101.649 8.00094 101.732 7.6463 101.898 7.36789C102.063 7.08948 102.287 6.86907 102.569 6.70667C102.851 6.54426 103.165 6.42163 103.513 6.33877C103.862 6.25591 104.216 6.19293 104.577 6.14985C105.035 6.09682 105.406 6.05373 105.691 6.02059C105.976 5.98413 106.183 5.92613 106.312 5.84658C106.442 5.76703 106.506 5.63777 106.506 5.4588V5.42399C106.506 4.98981 106.384 4.6534 106.138 4.41476C105.897 4.17612 105.535 4.05681 105.055 4.05681C104.554 4.05681 104.16 4.16784 103.871 4.3899C103.586 4.60865 103.389 4.85226 103.28 5.12073L101.883 4.80255C102.049 4.33853 102.29 3.964 102.609 3.67897C102.93 3.39061 103.3 3.18181 103.717 3.05255C104.135 2.91997 104.574 2.85368 105.035 2.85368C105.34 2.85368 105.663 2.89014 106.004 2.96306C106.349 3.03266 106.67 3.16192 106.969 3.35084C107.27 3.53976 107.517 3.80988 107.71 4.16121C107.902 4.50922 107.998 4.96164 107.998 5.51845V10.5895H106.546V9.54544H106.487C106.39 9.73768 106.246 9.9266 106.054 10.1122C105.862 10.2978 105.615 10.4519 105.313 10.5746C105.012 10.6972 104.65 10.7585 104.229 10.7585ZM104.553 9.56533C104.964 9.56533 105.315 9.48413 105.607 9.32172C105.902 9.15932 106.125 8.9472 106.278 8.68536C106.433 8.42021 106.511 8.13683 106.511 7.83522V6.85084C106.458 6.90387 106.356 6.95359 106.203 6.99999C106.054 7.04308 105.883 7.08119 105.691 7.11434C105.499 7.14416 105.312 7.17234 105.129 7.19885C104.947 7.22205 104.795 7.24194 104.672 7.25851C104.384 7.29497 104.12 7.35629 103.881 7.44246C103.646 7.52863 103.457 7.65292 103.315 7.81533C103.175 7.97442 103.106 8.18654 103.106 8.45169C103.106 8.81959 103.242 9.098 103.513 9.28692C103.785 9.47253 104.132 9.56533 104.553 9.56533ZM114.662 10.5895H113.032L116.696 0.407659H118.471L122.135 10.5895H120.504L117.625 2.25709H117.546L114.662 10.5895ZM114.936 6.60226H120.225V7.89488H114.936V6.60226ZM124.972 0.407659V10.5895H123.486V0.407659H124.972ZM128.458 0.407659V10.5895H126.972V0.407659H128.458ZM134.283 10.5895V0.407659H137.912C138.701 0.407659 139.355 0.543549 139.876 0.815329C140.399 1.08711 140.79 1.46329 141.049 1.94388C141.308 2.42115 141.437 2.973 141.437 3.59942C141.437 4.22253 141.306 4.77106 141.044 5.24502C140.786 5.71566 140.394 6.0819 139.871 6.34374C139.35 6.60558 138.696 6.73649 137.907 6.73649H135.158V5.41405H137.768C138.265 5.41405 138.669 5.34279 138.981 5.20027C139.296 5.05775 139.526 4.8506 139.672 4.57882C139.818 4.30704 139.891 3.98058 139.891 3.59942C139.891 3.21495 139.816 2.88185 139.667 2.60013C139.521 2.31841 139.291 2.10297 138.976 1.95382C138.664 1.80136 138.255 1.72513 137.748 1.72513H135.819V10.5895H134.283ZM139.309 5.99573L141.825 10.5895H140.075L137.609 5.99573H139.309ZM143.187 10.5895V2.95311H144.673V10.5895H143.187ZM143.938 1.77485C143.679 1.77485 143.457 1.68867 143.271 1.51632C143.089 1.34066 142.998 1.13185 142.998 0.889903C142.998 0.644638 143.089 0.435831 143.271 0.263483C143.457 0.08782 143.679 -1.13249e-05 143.938 -1.13249e-05C144.196 -1.13249e-05 144.416 0.08782 144.599 0.263483C144.784 0.435831 144.877 0.644638 144.877 0.889903C144.877 1.13185 144.784 1.34066 144.599 1.51632C144.416 1.68867 144.196 1.77485 143.938 1.77485ZM149.875 13.6122C149.268 13.6122 148.746 13.5327 148.309 13.3736C147.875 13.2145 147.52 13.004 147.245 12.7422C146.97 12.4803 146.764 12.1936 146.628 11.8821L147.906 11.3551C147.996 11.5009 148.115 11.6551 148.264 11.8175C148.416 11.9832 148.622 12.124 148.881 12.24C149.142 12.356 149.479 12.4141 149.89 12.4141C150.453 12.4141 150.919 12.2765 151.287 12.0014C151.655 11.7296 151.839 11.2954 151.839 10.6989V9.19743H151.744C151.655 9.35984 151.525 9.54047 151.356 9.73934C151.191 9.9382 150.962 10.1105 150.67 10.2564C150.379 10.4022 149.999 10.4751 149.532 10.4751C148.929 10.4751 148.385 10.3343 147.901 10.0525C147.421 9.76751 147.039 9.34824 146.758 8.79473C146.479 8.23791 146.34 7.55349 146.34 6.74147C146.34 5.92944 146.478 5.23342 146.753 4.6534C147.031 4.07338 147.412 3.62925 147.896 3.32101C148.38 3.00946 148.929 2.85368 149.542 2.85368C150.016 2.85368 150.398 2.93323 150.69 3.09232C150.982 3.24809 151.209 3.43039 151.371 3.63919C151.537 3.848 151.665 4.03195 151.754 4.19104H151.863V2.95311H153.32V10.7585C153.32 11.4148 153.168 11.9534 152.863 12.3743C152.558 12.7952 152.145 13.1068 151.625 13.3089C151.108 13.5111 150.524 13.6122 149.875 13.6122ZM149.86 9.24218C150.287 9.24218 150.649 9.14274 150.944 8.94388C151.242 8.7417 151.467 8.45335 151.62 8.07882C151.776 7.70098 151.854 7.24857 151.854 6.72158C151.854 6.20785 151.777 5.75543 151.625 5.36434C151.472 4.97324 151.249 4.66831 150.954 4.44956C150.659 4.2275 150.294 4.11647 149.86 4.11647C149.412 4.11647 149.04 4.23247 148.741 4.46448C148.443 4.69317 148.218 5.00472 148.065 5.39914C147.916 5.79355 147.841 6.23436 147.841 6.72158C147.841 7.22205 147.918 7.66121 148.07 8.03905C148.223 8.41689 148.448 8.71187 148.746 8.92399C149.048 9.13612 149.419 9.24218 149.86 9.24218ZM156.8 6.05539V10.5895H155.314V0.407659H156.78V4.19601H156.875C157.054 3.78503 157.327 3.45856 157.695 3.21661C158.063 2.97466 158.544 2.85368 159.137 2.85368C159.661 2.85368 160.118 2.9614 160.509 3.17684C160.903 3.39227 161.208 3.71377 161.424 4.14132C161.643 4.56557 161.752 5.09587 161.752 5.73223V10.5895H160.265V5.91121C160.265 5.35108 160.121 4.91689 159.833 4.60865C159.545 4.2971 159.144 4.14132 158.63 4.14132C158.278 4.14132 157.964 4.2159 157.685 4.36505C157.41 4.51419 157.193 4.73294 157.034 5.0213C156.878 5.30633 156.8 5.65103 156.8 6.05539ZM167.3 2.95311V4.1463H163.129V2.95311H167.3ZM164.248 1.12357H165.734V8.34729C165.734 8.63564 165.777 8.85273 165.863 8.99857C165.95 9.14109 166.061 9.23886 166.197 9.29189C166.336 9.34161 166.487 9.36647 166.649 9.36647C166.768 9.36647 166.873 9.35818 166.962 9.34161C167.052 9.32504 167.121 9.31178 167.171 9.30184L167.439 10.5298C167.353 10.563 167.231 10.5961 167.072 10.6293C166.912 10.6657 166.714 10.6856 166.475 10.6889C166.084 10.6955 165.719 10.6259 165.381 10.4801C165.043 10.3343 164.77 10.1089 164.561 9.80397C164.352 9.49904 164.248 9.11623 164.248 8.65553V1.12357ZM174.544 4.81746L173.197 5.0561C173.14 4.88375 173.051 4.71969 172.928 4.56391C172.809 4.40813 172.646 4.28053 172.441 4.1811C172.235 4.08166 171.979 4.03195 171.67 4.03195C171.249 4.03195 170.898 4.12641 170.616 4.31533C170.335 4.50094 170.194 4.74123 170.194 5.03621C170.194 5.29142 170.288 5.49691 170.477 5.65269C170.666 5.80846 170.971 5.93607 171.392 6.0355L172.605 6.31391C173.308 6.47631 173.831 6.72655 174.176 7.06462C174.521 7.40269 174.693 7.84184 174.693 8.38209C174.693 8.83948 174.56 9.24715 174.295 9.6051C174.033 9.95974 173.667 10.2382 173.197 10.4403C172.729 10.6425 172.187 10.7436 171.571 10.7436C170.716 10.7436 170.018 10.5613 169.478 10.1967C168.938 9.82882 168.606 9.30681 168.483 8.63067L169.92 8.41192C170.01 8.78645 170.194 9.06983 170.472 9.26206C170.751 9.45098 171.113 9.54544 171.561 9.54544C172.048 9.54544 172.438 9.44435 172.729 9.24218C173.021 9.03668 173.167 8.78645 173.167 8.49147C173.167 8.25283 173.077 8.05231 172.898 7.8899C172.723 7.7275 172.452 7.60487 172.088 7.52201L170.795 7.23863C170.083 7.07622 169.556 6.8177 169.214 6.46306C168.876 6.10842 168.707 5.65932 168.707 5.11576C168.707 4.665 168.833 4.27059 169.085 3.93252C169.337 3.59445 169.685 3.33095 170.129 3.14203C170.573 2.9498 171.082 2.85368 171.655 2.85368C172.481 2.85368 173.13 3.03266 173.604 3.39061C174.078 3.74525 174.391 4.22087 174.544 4.81746ZM180.152 10.5895V0.407659H183.781C184.57 0.407659 185.224 0.543549 185.745 0.815329C186.269 1.08711 186.66 1.46329 186.918 1.94388C187.177 2.42115 187.306 2.973 187.306 3.59942C187.306 4.22253 187.175 4.77106 186.913 5.24502C186.655 5.71566 186.264 6.0819 185.74 6.34374C185.22 6.60558 184.565 6.73649 183.776 6.73649H181.027V5.41405H183.637C184.134 5.41405 184.538 5.34279 184.85 5.20027C185.165 5.05775 185.395 4.8506 185.541 4.57882C185.687 4.30704 185.76 3.98058 185.76 3.59942C185.76 3.21495 185.685 2.88185 185.536 2.60013C185.39 2.31841 185.16 2.10297 184.845 1.95382C184.533 1.80136 184.124 1.72513 183.617 1.72513H181.688V10.5895H180.152ZM185.178 5.99573L187.694 10.5895H185.944L183.478 5.99573H185.178ZM192.251 10.7436C191.499 10.7436 190.851 10.5828 190.308 10.2614C189.767 9.93654 189.35 9.48081 189.055 8.89417C188.763 8.3042 188.617 7.61315 188.617 6.82101C188.617 6.03881 188.763 5.34942 189.055 4.75283C189.35 4.15624 189.761 3.69057 190.288 3.35581C190.818 3.02106 191.438 2.85368 192.147 2.85368C192.578 2.85368 192.996 2.92494 193.4 3.06746C193.804 3.20998 194.167 3.4337 194.489 3.73863C194.81 4.04355 195.064 4.43962 195.249 4.92684C195.435 5.41074 195.528 5.99904 195.528 6.69175V7.21874H189.457V6.1051H194.071C194.071 5.714 193.991 5.36765 193.832 5.06604C193.673 4.76112 193.45 4.52082 193.161 4.34516C192.876 4.1695 192.541 4.08167 192.157 4.08167C191.739 4.08167 191.375 4.18441 191.063 4.3899C190.755 4.59208 190.516 4.85723 190.347 5.18536C190.182 5.51017 190.099 5.86315 190.099 6.24431V7.11434C190.099 7.62475 190.188 8.05894 190.367 8.41689C190.549 8.77485 190.803 9.04828 191.128 9.2372C191.453 9.42281 191.832 9.51561 192.266 9.51561C192.548 9.51561 192.805 9.47584 193.037 9.3963C193.269 9.31344 193.469 9.1908 193.638 9.0284C193.808 8.86599 193.937 8.66547 194.026 8.42684L195.433 8.68039C195.321 9.09469 195.118 9.45761 194.827 9.76917C194.538 10.0774 194.175 10.3177 193.738 10.49C193.304 10.6591 192.808 10.7436 192.251 10.7436ZM202.899 4.81746L201.552 5.0561C201.496 4.88375 201.406 4.71969 201.284 4.56391C201.164 4.40813 201.002 4.28053 200.796 4.1811C200.591 4.08166 200.334 4.03195 200.026 4.03195C199.605 4.03195 199.253 4.12641 198.972 4.31533C198.69 4.50094 198.549 4.74123 198.549 5.03621C198.549 5.29142 198.644 5.49691 198.833 5.65269C199.021 5.80846 199.326 5.93607 199.747 6.0355L200.96 6.31391C201.663 6.47631 202.187 6.72655 202.531 7.06462C202.876 7.40269 203.048 7.84184 203.048 8.38209C203.048 8.83948 202.916 9.24715 202.651 9.6051C202.389 9.95974 202.023 10.2382 201.552 10.4403C201.085 10.6425 200.543 10.7436 199.926 10.7436C199.071 10.7436 198.374 10.5613 197.833 10.1967C197.293 9.82882 196.962 9.30681 196.839 8.63067L198.276 8.41192C198.365 8.78645 198.549 9.06983 198.828 9.26206C199.106 9.45098 199.469 9.54544 199.916 9.54544C200.404 9.54544 200.793 9.44435 201.085 9.24218C201.376 9.03668 201.522 8.78645 201.522 8.49147C201.522 8.25283 201.433 8.05231 201.254 7.8899C201.078 7.7275 200.808 7.60487 200.443 7.52201L199.151 7.23863C198.438 7.07622 197.911 6.8177 197.57 6.46306C197.232 6.10842 197.063 5.65932 197.063 5.11576C197.063 4.665 197.189 4.27059 197.441 3.93252C197.692 3.59445 198.04 3.33095 198.485 3.14203C198.929 2.9498 199.437 2.85368 200.011 2.85368C200.836 2.85368 201.486 3.03266 201.96 3.39061C202.434 3.74525 202.747 4.22087 202.899 4.81746ZM207.974 10.7436C207.222 10.7436 206.574 10.5828 206.03 10.2614C205.49 9.93654 205.072 9.48081 204.777 8.89417C204.486 8.3042 204.34 7.61315 204.34 6.82101C204.34 6.03881 204.486 5.34942 204.777 4.75283C205.072 4.15624 205.483 3.69057 206.01 3.35581C206.541 3.02106 207.16 2.85368 207.87 2.85368C208.301 2.85368 208.718 2.92494 209.123 3.06746C209.527 3.20998 209.89 3.4337 210.211 3.73863C210.533 4.04355 210.786 4.43962 210.972 4.92684C211.158 5.41074 211.25 5.99904 211.25 6.69175V7.21874H205.18V6.1051H209.794C209.794 5.714 209.714 5.36765 209.555 5.06604C209.396 4.76112 209.172 4.52082 208.884 4.34516C208.599 4.1695 208.264 4.08167 207.88 4.08167C207.462 4.08167 207.097 4.18441 206.786 4.3899C206.478 4.59208 206.239 4.85723 206.07 5.18536C205.904 5.51017 205.821 5.86315 205.821 6.24431V7.11434C205.821 7.62475 205.911 8.05894 206.09 8.41689C206.272 8.77485 206.526 9.04828 206.85 9.2372C207.175 9.42281 207.555 9.51561 207.989 9.51561C208.271 9.51561 208.528 9.47584 208.76 9.3963C208.992 9.31344 209.192 9.1908 209.361 9.0284C209.53 8.86599 209.659 8.66547 209.749 8.42684L211.156 8.68039C211.043 9.09469 210.841 9.45761 210.549 9.76917C210.261 10.0774 209.898 10.3177 209.461 10.49C209.026 10.6591 208.531 10.7436 207.974 10.7436ZM212.9 10.5895V2.95311H214.336V4.16618H214.416C214.555 3.7552 214.8 3.43204 215.152 3.19672C215.506 2.95809 215.907 2.83877 216.355 2.83877C216.448 2.83877 216.557 2.84208 216.683 2.84871C216.812 2.85534 216.913 2.86362 216.986 2.87357V4.29544C216.927 4.27887 216.821 4.26064 216.668 4.24076C216.516 4.21755 216.363 4.20595 216.211 4.20595C215.859 4.20595 215.546 4.28053 215.271 4.42968C214.999 4.57551 214.784 4.77934 214.625 5.04118C214.466 5.2997 214.386 5.59469 214.386 5.92613V10.5895H212.9ZM225.038 2.95311L222.269 10.5895H220.678L217.904 2.95311H219.499L221.433 8.82953H221.513L223.442 2.95311H225.038ZM229.466 10.7436C228.714 10.7436 228.066 10.5828 227.522 10.2614C226.982 9.93654 226.565 9.48081 226.27 8.89417C225.978 8.3042 225.832 7.61315 225.832 6.82101C225.832 6.03881 225.978 5.34942 226.27 4.75283C226.565 4.15624 226.975 3.69057 227.502 3.35581C228.033 3.02106 228.653 2.85368 229.362 2.85368C229.793 2.85368 230.21 2.92494 230.615 3.06746C231.019 3.20998 231.382 3.4337 231.703 3.73863C232.025 4.04355 232.279 4.43962 232.464 4.92684C232.65 5.41074 232.743 5.99904 232.743 6.69175V7.21874H226.672V6.1051H231.286C231.286 5.714 231.206 5.36765 231.047 5.06604C230.888 4.76112 230.664 4.52082 230.376 4.34516C230.091 4.1695 229.756 4.08167 229.372 4.08167C228.954 4.08167 228.59 4.18441 228.278 4.3899C227.97 4.59208 227.731 4.85723 227.562 5.18536C227.396 5.51017 227.314 5.86315 227.314 6.24431V7.11434C227.314 7.62475 227.403 8.05894 227.582 8.41689C227.764 8.77485 228.018 9.04828 228.343 9.2372C228.667 9.42281 229.047 9.51561 229.481 9.51561C229.763 9.51561 230.02 9.47584 230.252 9.3963C230.484 9.31344 230.684 9.1908 230.853 9.0284C231.022 8.86599 231.152 8.66547 231.241 8.42684L232.648 8.68039C232.535 9.09469 232.333 9.45761 232.042 9.76917C231.753 10.0774 231.39 10.3177 230.953 10.49C230.519 10.6591 230.023 10.7436 229.466 10.7436ZM237.251 10.7386C236.634 10.7386 236.084 10.5812 235.6 10.2663C235.119 9.94814 234.742 9.49573 234.466 8.90908C234.195 8.31912 234.059 7.61149 234.059 6.78621C234.059 5.96093 234.196 5.25496 234.471 4.66831C234.75 4.08166 235.131 3.63256 235.615 3.32101C236.099 3.00946 236.647 2.85368 237.26 2.85368C237.734 2.85368 238.116 2.93323 238.404 3.09232C238.696 3.24809 238.921 3.43039 239.08 3.63919C239.242 3.848 239.368 4.03195 239.458 4.19104H239.547V0.407659H241.034V10.5895H239.582V9.40127H239.458C239.368 9.56367 239.239 9.74928 239.07 9.95809C238.904 10.1669 238.676 10.3492 238.384 10.505C238.092 10.6607 237.715 10.7386 237.251 10.7386ZM237.579 9.47087C238.006 9.47087 238.367 9.35818 238.662 9.1328C238.961 8.90411 239.186 8.58758 239.339 8.18323C239.494 7.77887 239.572 7.30823 239.572 6.7713C239.572 6.24099 239.496 5.77698 239.344 5.37925C239.191 4.98152 238.967 4.67163 238.672 4.44956C238.377 4.2275 238.013 4.11647 237.579 4.11647C237.131 4.11647 236.758 4.23247 236.46 4.46448C236.162 4.69648 235.936 5.01301 235.784 5.41405C235.635 5.81509 235.56 6.26751 235.56 6.7713C235.56 7.28171 235.636 7.74076 235.789 8.14843C235.941 8.5561 236.167 8.87925 236.465 9.11789C236.767 9.35321 237.138 9.47087 237.579 9.47087ZM244.135 10.6839C243.863 10.6839 243.629 10.5878 243.434 10.3956C243.238 10.2 243.141 9.96471 243.141 9.68962C243.141 9.41784 243.238 9.18583 243.434 8.9936C243.629 8.79805 243.863 8.70027 244.135 8.70027C244.407 8.70027 244.64 8.79805 244.836 8.9936C245.031 9.18583 245.129 9.41784 245.129 9.68962C245.129 9.87191 245.083 10.0393 244.99 10.1918C244.901 10.3409 244.781 10.4602 244.632 10.5497C244.483 10.6392 244.317 10.6839 244.135 10.6839Z" fill="#999999"/>
</svg>
