<svg width="43" height="10" viewBox="0 0 43 10" fill="none" xmlns="http://www.w3.org/2000/svg">
<path d="M2.06965 4.53336C2.06965 4.07259 2.18269 3.65188 2.40879 3.27124C2.63488 2.8906 2.93682 2.58866 3.3146 2.36543C3.69524 2.13934 4.11594 2.02629 4.57672 2.02629C4.97739 2.02629 5.34801 2.11358 5.68859 2.28816C6.02916 2.45988 6.31106 2.69599 6.53429 2.99649C6.75753 3.297 6.89347 3.63471 6.94212 4.00962H5.82596C5.77445 3.74346 5.62849 3.52595 5.38808 3.3571C5.15054 3.18538 4.88009 3.09952 4.57672 3.09952C4.31342 3.09952 4.07301 3.16392 3.85551 3.2927C3.638 3.42149 3.46485 3.59464 3.33606 3.81215C3.20727 4.0268 3.14288 4.2672 3.14288 4.53336C3.14288 4.79666 3.20727 5.03707 3.33606 5.25457C3.46485 5.47208 3.638 5.64523 3.85551 5.77402C4.07301 5.90281 4.31342 5.9672 4.57672 5.9672C4.88009 5.9672 5.13909 5.88277 5.35374 5.71392C5.56839 5.5422 5.7029 5.32326 5.75727 5.0571H6.87344C6.82478 5.43201 6.69456 5.76973 6.48278 6.07023C6.27099 6.37074 6.00054 6.60828 5.67142 6.78286C5.34229 6.95457 4.97739 7.04043 4.57672 7.04043C4.11594 7.04043 3.69524 6.92882 3.3146 6.70558C2.93682 6.47949 2.63488 6.17612 2.40879 5.79548C2.18269 5.41484 2.06965 4.99414 2.06965 4.53336ZM4.53808 9.0667C3.91418 9.0667 3.32748 8.94935 2.77798 8.71467C2.23135 8.47999 1.74911 8.15516 1.33126 7.74018C0.916281 7.32233 0.590018 6.8401 0.352476 6.29346C0.117796 5.74683 0.00188674 5.16013 0.00474872 4.53336C0.00761064 3.90659 0.126382 3.31989 0.361062 2.77326C0.598604 2.22663 0.924867 1.74582 1.33985 1.33084C1.75483 0.912991 2.23564 0.586728 2.78227 0.352048C3.32891 0.117368 3.91418 2.80566e-05 4.53808 2.80566e-05C5.16485 2.80566e-05 5.75155 0.117368 6.29818 0.352048C6.84768 0.586728 7.32849 0.912991 7.74061 1.33084C8.15559 1.74582 8.48042 2.22663 8.7151 2.77326C8.94978 3.31989 9.06855 3.90659 9.07142 4.53336C9.07428 5.16013 8.95837 5.74683 8.72369 6.29346C8.48901 6.8401 8.16418 7.32233 7.74919 7.74018C7.33421 8.15516 6.85197 8.47999 6.30248 8.71467C5.75298 8.94935 5.16485 9.0667 4.53808 9.0667ZM4.53808 7.92478C5.00744 7.92478 5.44818 7.83749 5.8603 7.66291C6.27243 7.48833 6.63303 7.24649 6.94212 6.9374C7.25408 6.62545 7.49734 6.26484 7.67192 5.85558C7.8465 5.44346 7.93236 5.00415 7.9295 4.53765C7.9295 4.06829 7.84078 3.62755 7.66334 3.21543C7.48876 2.80331 7.24549 2.4427 6.93354 2.13361C6.62445 1.82166 6.26527 1.57839 5.85601 1.40382C5.44675 1.22924 5.00744 1.14195 4.53808 1.14195C4.07158 1.14195 3.63371 1.22924 3.22445 1.40382C2.81519 1.57839 2.45458 1.82166 2.14263 2.13361C1.83354 2.44557 1.59027 2.8076 1.41283 3.21972C1.23539 3.62898 1.14667 4.06829 1.14667 4.53765C1.14381 5.00129 1.22966 5.43917 1.40424 5.85129C1.58168 6.26055 1.82495 6.62116 2.13404 6.93311C2.44599 7.2422 2.8066 7.48547 3.21586 7.66291C3.62798 7.83749 4.06872 7.92478 4.53808 7.92478ZM14.1156 8.92932V7.96771L17.0906 4.88538C17.4083 4.55053 17.6702 4.25718 17.8762 4.00533C18.0851 3.75062 18.2411 3.50878 18.3441 3.27983C18.4472 3.05087 18.4987 2.8076 18.4987 2.55003C18.4987 2.25811 18.43 2.00626 18.2926 1.79447C18.1553 1.57983 17.9678 1.41526 17.7303 1.30079C17.4927 1.18345 17.2251 1.12478 16.9275 1.12478C16.6127 1.12478 16.3379 1.18917 16.1032 1.31796C15.8686 1.44675 15.6883 1.62848 15.5623 1.86316C15.4364 2.09784 15.3734 2.37259 15.3734 2.6874H14.107C14.107 2.15222 14.2301 1.68429 14.4762 1.28361C14.7223 0.882941 15.0601 0.572419 15.4893 0.352048C15.9186 0.128816 16.4066 0.0171996 16.9532 0.0171996C17.5056 0.0171996 17.9921 0.127385 18.4128 0.347755C18.8364 0.565263 19.167 0.862907 19.4045 1.24068C19.642 1.6156 19.7608 2.03917 19.7608 2.51139C19.7608 2.83765 19.6993 3.15676 19.5762 3.46871C19.456 3.78067 19.2457 4.1284 18.9452 4.5119C18.6446 4.89254 18.2268 5.35474 17.6916 5.89851L15.9444 7.7273V7.79169H19.9025V8.92932H14.1156ZM24.5904 9.07528C23.9121 9.07242 23.3325 8.89355 22.8517 8.53866C22.3709 8.18378 22.0031 7.6672 21.7484 6.98892C21.4937 6.31063 21.3664 5.49355 21.3664 4.53765C21.3664 3.58462 21.4937 2.7704 21.7484 2.09498C22.006 1.41956 22.3752 0.904405 22.856 0.549523C23.3397 0.194641 23.9178 0.0171996 24.5904 0.0171996C25.2629 0.0171996 25.8396 0.196072 26.3204 0.553816C26.8012 0.908698 27.169 1.42385 27.4237 2.09927C27.6813 2.77183 27.8101 3.58462 27.8101 4.53765C27.8101 5.49641 27.6827 6.31493 27.428 6.99321C27.1733 7.66863 26.8055 8.18521 26.3247 8.54296C25.8439 8.89784 25.2658 9.07528 24.5904 9.07528ZM24.5904 7.92907C25.1856 7.92907 25.6507 7.63858 25.9856 7.0576C26.3233 6.47663 26.4921 5.63664 26.4921 4.53765C26.4921 3.80786 26.4148 3.19111 26.2603 2.6874C26.1086 2.18084 25.8897 1.79733 25.6035 1.5369C25.3202 1.2736 24.9824 1.14195 24.5904 1.14195C23.9979 1.14195 23.5329 1.43387 23.1952 2.0177C22.8574 2.60154 22.6872 3.44153 22.6843 4.53765C22.6843 5.27031 22.7601 5.88993 22.9118 6.39649C23.0664 6.9002 23.2853 7.28227 23.5686 7.54271C23.852 7.80028 24.1925 7.92907 24.5904 7.92907ZM29.333 8.92932V7.96771L32.308 4.88538C32.6256 4.55053 32.8875 4.25718 33.0936 4.00533C33.3025 3.75062 33.4585 3.50878 33.5615 3.27983C33.6645 3.05087 33.7161 2.8076 33.7161 2.55003C33.7161 2.25811 33.6474 2.00626 33.51 1.79447C33.3726 1.57983 33.1852 1.41526 32.9476 1.30079C32.7101 1.18345 32.4425 1.12478 32.1448 1.12478C31.83 1.12478 31.5553 1.18917 31.3206 1.31796C31.0859 1.44675 30.9056 1.62848 30.7797 1.86316C30.6538 2.09784 30.5908 2.37259 30.5908 2.6874H29.3244C29.3244 2.15222 29.4474 1.68429 29.6936 1.28361C29.9397 0.882941 30.2774 0.572419 30.7067 0.352048C31.136 0.128816 31.624 0.0171996 32.1706 0.0171996C32.723 0.0171996 33.2095 0.127385 33.6302 0.347755C34.0538 0.565263 34.3843 0.862907 34.6219 1.24068C34.8594 1.6156 34.9782 2.03917 34.9782 2.51139C34.9782 2.83765 34.9166 3.15676 34.7936 3.46871C34.6734 3.78067 34.463 4.1284 34.1625 4.5119C33.862 4.89254 33.4442 5.35474 32.909 5.89851L31.1618 7.7273V7.79169H35.1198V8.92932H29.333ZM39.8077 9.04952C39.2182 9.04952 38.6916 8.94792 38.2279 8.74473C37.7671 8.54153 37.4022 8.25962 37.1332 7.89902C36.8671 7.53555 36.724 7.11484 36.7039 6.6369H38.0519C38.0691 6.89733 38.1564 7.12343 38.3138 7.31518C38.474 7.50407 38.683 7.65003 38.9405 7.75306C39.1981 7.85609 39.4843 7.9076 39.7991 7.9076C40.1454 7.9076 40.4517 7.8475 40.7178 7.7273C40.9868 7.6071 41.1972 7.43967 41.3489 7.22503C41.5006 7.00752 41.5764 6.7571 41.5764 6.47377C41.5764 6.17898 41.5006 5.91998 41.3489 5.69675C41.2001 5.47065 40.9811 5.29321 40.6921 5.16442C40.4059 5.03563 40.0596 4.97124 39.6532 4.97124H38.9105V3.88942H39.6532C39.9794 3.88942 40.2656 3.83075 40.5118 3.71341C40.7607 3.59607 40.9554 3.43294 41.0956 3.22402C41.2358 3.01223 41.3059 2.76467 41.3059 2.48134C41.3059 2.20946 41.2444 1.97334 41.1214 1.77301C41.0012 1.56981 40.8294 1.41097 40.6062 1.29649C40.3858 1.18201 40.1254 1.12478 39.8249 1.12478C39.5387 1.12478 39.2711 1.17772 39.0221 1.28361C38.776 1.38664 38.5756 1.53547 38.4211 1.73008C38.2666 1.92183 38.1836 2.15222 38.1721 2.42124H36.8885C36.9028 1.94616 37.0431 1.52831 37.3092 1.1677C37.5783 0.807098 37.9331 0.525196 38.3739 0.321997C38.8146 0.118799 39.304 0.0171996 39.8421 0.0171996C40.4059 0.0171996 40.8924 0.127385 41.3017 0.347755C41.7138 0.565263 42.0315 0.855752 42.2547 1.21922C42.4808 1.58269 42.5924 1.9805 42.5895 2.41265C42.5924 2.90491 42.455 3.32276 42.1774 3.66619C41.9027 4.00962 41.5363 4.24001 41.0784 4.35735V4.42604C41.6623 4.51476 42.1144 4.74658 42.435 5.12149C42.7584 5.49641 42.9187 5.96148 42.9158 6.51669C42.9187 7.00037 42.7841 7.43395 42.5123 7.81745C42.2432 8.20095 41.8755 8.50289 41.409 8.72326C40.9425 8.94077 40.4087 9.04952 39.8077 9.04952Z" fill="#999999"/>
</svg>
