<svg width="144" height="46" viewBox="0 0 144 46" fill="none" xmlns="http://www.w3.org/2000/svg">
<path d="M62.6773 15.1093C64.2418 15.1093 65.6142 15.4151 66.7947 16.0267C67.9893 16.6382 68.9067 17.5129 69.5467 18.6507C70.2009 19.7742 70.528 21.0827 70.528 22.576C70.528 24.0693 70.2009 25.3778 69.5467 26.5013C68.9067 27.6107 67.9893 28.4711 66.7947 29.0827C65.6142 29.6942 64.2418 30 62.6773 30H57.472V15.1093H62.6773ZM62.5707 27.4613C64.1351 27.4613 65.344 27.0347 66.1973 26.1813C67.0507 25.328 67.4773 24.1262 67.4773 22.576C67.4773 21.0258 67.0507 19.8169 66.1973 18.9493C65.344 18.0676 64.1351 17.6267 62.5707 17.6267H60.4587V27.4613H62.5707ZM74.2783 16.7733C73.7521 16.7733 73.3112 16.6098 72.9557 16.2827C72.6143 15.9413 72.4437 15.5218 72.4437 15.024C72.4437 14.5262 72.6143 14.1138 72.9557 13.7867C73.3112 13.4453 73.7521 13.2747 74.2783 13.2747C74.8046 13.2747 75.2383 13.4453 75.5797 13.7867C75.9352 14.1138 76.113 14.5262 76.113 15.024C76.113 15.5218 75.9352 15.9413 75.5797 16.2827C75.2383 16.6098 74.8046 16.7733 74.2783 16.7733ZM75.7503 18.1813V30H72.7637V18.1813H75.7503ZM83.6292 27.248L86.6158 18.1813H89.7945L85.4212 30H81.7945L77.4425 18.1813H80.6425L83.6292 27.248ZM102.459 23.8347C102.459 24.2613 102.43 24.6453 102.373 24.9867H93.7333C93.8044 25.84 94.1031 26.5084 94.6293 26.992C95.1556 27.4756 95.8027 27.7173 96.5707 27.7173C97.68 27.7173 98.4693 27.2409 98.9387 26.288H102.16C101.819 27.4258 101.164 28.3644 100.197 29.104C99.2302 29.8293 98.0427 30.192 96.6347 30.192C95.4969 30.192 94.4729 29.9431 93.5627 29.4453C92.6667 28.9333 91.9627 28.2151 91.4507 27.2907C90.9529 26.3662 90.704 25.2996 90.704 24.0907C90.704 22.8676 90.9529 21.7938 91.4507 20.8693C91.9484 19.9449 92.6453 19.2338 93.5413 18.736C94.4373 18.2382 95.4684 17.9893 96.6347 17.9893C97.7582 17.9893 98.7609 18.2311 99.6427 18.7147C100.539 19.1982 101.228 19.888 101.712 20.784C102.21 21.6658 102.459 22.6827 102.459 23.8347ZM99.3653 22.9813C99.3511 22.2133 99.0738 21.6018 98.5333 21.1467C97.9929 20.6773 97.3316 20.4427 96.5493 20.4427C95.8098 20.4427 95.184 20.6702 94.672 21.1253C94.1742 21.5662 93.8684 22.1849 93.7547 22.9813H99.3653ZM109.78 30.1493C108.742 30.1493 107.803 29.9716 106.964 29.616C106.139 29.2604 105.485 28.7484 105.001 28.08C104.518 27.4116 104.269 26.6222 104.255 25.712H107.455C107.497 26.3236 107.711 26.8071 108.095 27.1627C108.493 27.5182 109.033 27.696 109.716 27.696C110.413 27.696 110.96 27.5324 111.359 27.2053C111.757 26.864 111.956 26.4231 111.956 25.8827C111.956 25.4418 111.821 25.0791 111.551 24.7947C111.28 24.5102 110.939 24.2898 110.527 24.1333C110.128 23.9627 109.574 23.7778 108.863 23.5787C107.896 23.2942 107.106 23.0169 106.495 22.7467C105.897 22.4622 105.378 22.0427 104.937 21.488C104.511 20.9191 104.297 20.1653 104.297 19.2267C104.297 18.3449 104.518 17.5769 104.959 16.9227C105.4 16.2684 106.018 15.7707 106.815 15.4293C107.611 15.0738 108.521 14.896 109.545 14.896C111.081 14.896 112.326 15.2729 113.279 16.0267C114.246 16.7662 114.779 17.8044 114.879 19.1413H111.593C111.565 18.6293 111.344 18.2098 110.932 17.8827C110.534 17.5413 110 17.3707 109.332 17.3707C108.749 17.3707 108.28 17.52 107.924 17.8187C107.583 18.1173 107.412 18.5511 107.412 19.12C107.412 19.5182 107.54 19.8524 107.796 20.1227C108.066 20.3787 108.393 20.592 108.777 20.7627C109.176 20.9191 109.73 21.104 110.441 21.3173C111.408 21.6018 112.198 21.8862 112.809 22.1707C113.421 22.4551 113.947 22.8818 114.388 23.4507C114.829 24.0196 115.049 24.7662 115.049 25.6907C115.049 26.4871 114.843 27.2267 114.431 27.9093C114.018 28.592 113.414 29.1396 112.617 29.552C111.821 29.9502 110.875 30.1493 109.78 30.1493ZM128.625 23.8347C128.625 24.2613 128.597 24.6453 128.54 24.9867H119.9C119.971 25.84 120.27 26.5084 120.796 26.992C121.322 27.4756 121.969 27.7173 122.737 27.7173C123.847 27.7173 124.636 27.2409 125.105 26.288H128.327C127.985 27.4258 127.331 28.3644 126.364 29.104C125.397 29.8293 124.209 30.192 122.801 30.192C121.664 30.192 120.64 29.9431 119.729 29.4453C118.833 28.9333 118.129 28.2151 117.617 27.2907C117.12 26.3662 116.871 25.2996 116.871 24.0907C116.871 22.8676 117.12 21.7938 117.617 20.8693C118.115 19.9449 118.812 19.2338 119.708 18.736C120.604 18.2382 121.635 17.9893 122.801 17.9893C123.925 17.9893 124.928 18.2311 125.809 18.7147C126.705 19.1982 127.395 19.888 127.879 20.784C128.376 21.6658 128.625 22.6827 128.625 23.8347ZM125.532 22.9813C125.518 22.2133 125.24 21.6018 124.7 21.1467C124.16 20.6773 123.498 20.4427 122.716 20.4427C121.976 20.4427 121.351 20.6702 120.839 21.1253C120.341 21.5662 120.035 22.1849 119.921 22.9813H125.532ZM130.037 24.048C130.037 22.8533 130.272 21.7938 130.741 20.8693C131.225 19.9449 131.872 19.2338 132.683 18.736C133.508 18.2382 134.425 17.9893 135.435 17.9893C136.316 17.9893 137.084 18.1671 137.739 18.5227C138.407 18.8782 138.94 19.3262 139.339 19.8667V18.1813H142.347V30H139.339V28.272C138.955 28.8267 138.421 29.2889 137.739 29.6587C137.07 30.0142 136.295 30.192 135.413 30.192C134.418 30.192 133.508 29.936 132.683 29.424C131.872 28.912 131.225 28.1938 130.741 27.2693C130.272 26.3307 130.037 25.2569 130.037 24.048ZM139.339 24.0907C139.339 23.3653 139.196 22.7467 138.912 22.2347C138.628 21.7084 138.244 21.3102 137.76 21.04C137.276 20.7556 136.757 20.6133 136.203 20.6133C135.648 20.6133 135.136 20.7484 134.667 21.0187C134.197 21.2889 133.813 21.6871 133.515 22.2133C133.23 22.7253 133.088 23.3369 133.088 24.048C133.088 24.7591 133.23 25.3849 133.515 25.9253C133.813 26.4516 134.197 26.8569 134.667 27.1413C135.15 27.4258 135.662 27.568 136.203 27.568C136.757 27.568 137.276 27.4329 137.76 27.1627C138.244 26.8782 138.628 26.48 138.912 25.968C139.196 25.4418 139.339 24.816 139.339 24.0907Z" fill="white"/>
<path d="M40.9256 31.5078C39.2308 31.5078 38.4797 30.853 37.4204 29.9285C36.2456 28.9271 34.7819 27.6559 32.0279 27.6559C29.2545 27.6559 27.8101 28.9271 26.6352 29.9285C25.576 30.853 24.8056 31.5078 23.1108 31.5078C21.4353 31.5078 20.6649 30.853 19.6056 29.9285C18.4308 28.9271 16.9671 27.6559 14.2131 27.6559C11.4397 27.6559 9.97602 28.9271 8.80121 29.9285C7.74195 30.853 6.99082 31.5078 5.29601 31.5078C4.50638 31.5078 3.85156 32.1626 3.85156 32.9522C3.85156 33.7611 4.50638 34.3967 5.29601 34.3967C8.06934 34.3967 9.51376 33.1448 10.6886 32.1241C11.7478 31.1997 12.5182 30.5448 14.2131 30.5448C15.9079 30.5448 16.659 31.1997 17.7183 32.1241C18.8931 33.1448 20.3567 34.3967 23.1108 34.3967C25.8842 34.3967 27.3479 33.1448 28.5227 32.1241C29.5819 31.1997 30.3331 30.5448 32.0279 30.5448C33.7034 30.5448 34.4738 31.1997 35.5331 32.1241C36.7079 33.1448 38.1716 34.3967 40.9256 34.3967C41.7153 34.3967 42.3701 33.7611 42.3701 32.9522C42.3701 32.1626 41.7153 31.5078 40.9256 31.5078Z" fill="white"/>
<path d="M40.9256 23.5737C39.2308 23.5737 38.4797 22.8996 37.4204 21.9944C36.2456 20.9737 34.7819 19.7218 32.0279 19.7218C29.2545 19.7218 27.8101 20.9737 26.6352 21.9944C25.576 22.8996 24.8056 23.5737 23.1108 23.5737C21.4353 23.5737 20.6649 22.8996 19.6056 21.9944C18.4308 20.9737 16.9671 19.7218 14.2131 19.7218C11.4397 19.7218 9.97602 20.9737 8.80121 21.9944C7.74195 22.8996 6.99082 23.5737 5.29601 23.5737C4.50638 23.5737 3.85156 24.2092 3.85156 25.0181C3.85156 25.8077 4.50638 26.4625 5.29601 26.4625C8.06934 26.4625 9.51376 25.1914 10.6886 24.1707C11.7478 23.2655 12.5182 22.6107 14.2131 22.6107C15.9079 22.6107 16.659 23.2655 17.7183 24.1707C18.8931 25.1914 20.3567 26.4625 23.1108 26.4625C25.8842 26.4625 27.3479 25.1914 28.5227 24.1707C29.5819 23.2655 30.3331 22.6107 32.0279 22.6107C33.7034 22.6107 34.4738 23.2655 35.5331 24.1707C36.7079 25.1914 38.1716 26.4625 40.9256 26.4625C41.7153 26.4625 42.3701 25.8077 42.3701 25.0181C42.3701 24.2092 41.7153 23.5737 40.9256 23.5737Z" fill="white"/>
<path d="M5.29601 18.5662C8.06934 18.5662 9.51376 17.2951 10.6886 16.2936C11.7478 15.3691 12.5182 14.7143 14.2131 14.7143C15.9079 14.7143 16.659 15.3691 17.7183 16.2936C18.8931 17.2951 20.3567 18.5662 23.1108 18.5662C25.8842 18.5662 27.3479 17.2951 28.5227 16.2936C29.5819 15.3691 30.3331 14.7143 32.0279 14.7143C33.7034 14.7143 34.4738 15.3691 35.5331 16.2936C36.7079 17.2951 38.1716 18.5662 40.9256 18.5662C41.7153 18.5662 42.3701 17.9114 42.3701 17.1217C42.3701 16.3128 41.7153 15.6773 40.9256 15.6773C39.2308 15.6773 38.4797 15.0225 37.4204 14.098C36.2456 13.0773 34.7819 11.8254 32.0279 11.8254C29.2545 11.8254 27.8101 13.0773 26.6352 14.098C25.576 15.0225 24.8056 15.6773 23.1108 15.6773C21.4353 15.6773 20.6649 15.0225 19.6056 14.098C18.4308 13.0773 16.9671 11.8254 14.2131 11.8254C11.4397 11.8254 9.97602 13.0773 8.80121 14.098C7.74195 15.0225 6.99082 15.6773 5.29601 15.6773C4.50638 15.6773 3.85156 16.3128 3.85156 17.1217C3.85156 17.9114 4.50638 18.5662 5.29601 18.5662Z" fill="white"/>
</svg>
